<?xml version="1.0" encoding="utf-8"?>
<svg version="1.1" xmlns:xlink="http://www.w3.org/1999/xlink" width="62px" height="30px" xmlns="http://www.w3.org/2000/svg">
  <g transform="matrix(1 0 0 1 -15 -29 )">
    <path d="M 16.5 35  A 4.5 4.5 0 0 1 21 30.5 L 71 30.5  A 4.5 4.5 0 0 1 75.5 35 L 75.5 53  A 4.5 4.5 0 0 1 71 57.5 L 21 57.5  A 4.5 4.5 0 0 1 16.5 53 L 16.5 35  Z " fill-rule="nonzero" fill="#51505b" stroke="none" />
    <path d="M 16 35  A 5 5 0 0 1 21 30 L 71 30  A 5 5 0 0 1 76 35 L 76 53  A 5 5 0 0 1 71 58 L 21 58  A 5 5 0 0 1 16 53 L 16 35  Z " stroke-width="2" stroke="#eda091" fill="none" />
  </g>
</svg>