<?xml version="1.0" encoding="utf-8"?>
<svg version="1.1" xmlns:xlink="http://www.w3.org/1999/xlink" width="50px" height="30px" xmlns="http://www.w3.org/2000/svg">
  <g transform="matrix(1 0 0 1 -284 -29 )">
    <path d="M 284.5 35  A 5.5 5.5 0 0 1 290 29.5 L 328 29.5  A 5.5 5.5 0 0 1 333.5 35 L 333.5 53  A 5.5 5.5 0 0 1 328 58.5 L 290 58.5  A 5.5 5.5 0 0 1 284.5 53 L 284.5 35  Z " fill-rule="nonzero" fill="#51505b" stroke="none" />
    <path d="M 284.5 35  A 5.5 5.5 0 0 1 290 29.5 L 328 29.5  A 5.5 5.5 0 0 1 333.5 35 L 333.5 53  A 5.5 5.5 0 0 1 328 58.5 L 290 58.5  A 5.5 5.5 0 0 1 284.5 53 L 284.5 35  Z " stroke-width="1" stroke="#bea6a0" fill="none" />
  </g>
</svg>