<?xml version="1.0" encoding="utf-8"?>
<svg version="1.1" xmlns:xlink="http://www.w3.org/1999/xlink" width="50px" height="30px" xmlns="http://www.w3.org/2000/svg">
  <g transform="matrix(1 0 0 1 -284 -29 )">
    <path d="M 285.5 35  A 4.5 4.5 0 0 1 290 30.5 L 328 30.5  A 4.5 4.5 0 0 1 332.5 35 L 332.5 53  A 4.5 4.5 0 0 1 328 57.5 L 290 57.5  A 4.5 4.5 0 0 1 285.5 53 L 285.5 35  Z " fill-rule="nonzero" fill="#51505b" stroke="none" />
    <path d="M 285 35  A 5 5 0 0 1 290 30 L 328 30  A 5 5 0 0 1 333 35 L 333 53  A 5 5 0 0 1 328 58 L 290 58  A 5 5 0 0 1 285 53 L 285 35  Z " stroke-width="2" stroke="#eda091" fill="none" />
  </g>
</svg>