<?xml version="1.0" encoding="utf-8"?>
<svg version="1.1" xmlns:xlink="http://www.w3.org/1999/xlink" width="74px" height="30px" xmlns="http://www.w3.org/2000/svg">
  <g transform="matrix(1 0 0 1 -15 -65 )">
    <path d="M 16.5 71  A 4.5 4.5 0 0 1 21 66.5 L 83 66.5  A 4.5 4.5 0 0 1 87.5 71 L 87.5 89  A 4.5 4.5 0 0 1 83 93.5 L 21 93.5  A 4.5 4.5 0 0 1 16.5 89 L 16.5 71  Z " fill-rule="nonzero" fill="#51505b" stroke="none" />
    <path d="M 16 71  A 5 5 0 0 1 21 66 L 83 66  A 5 5 0 0 1 88 71 L 88 89  A 5 5 0 0 1 83 94 L 21 94  A 5 5 0 0 1 16 89 L 16 71  Z " stroke-width="2" stroke="#eda091" fill="none" />
  </g>
</svg>