<?xml version="1.0" encoding="utf-8"?>
<svg version="1.1" xmlns:xlink="http://www.w3.org/1999/xlink" width="74px" height="30px" xmlns="http://www.w3.org/2000/svg">
  <g transform="matrix(1 0 0 1 -15 -65 )">
    <path d="M 15.5 71  A 5.5 5.5 0 0 1 21 65.5 L 83 65.5  A 5.5 5.5 0 0 1 88.5 71 L 88.5 89  A 5.5 5.5 0 0 1 83 94.5 L 21 94.5  A 5.5 5.5 0 0 1 15.5 89 L 15.5 71  Z " fill-rule="nonzero" fill="#51505b" stroke="none" />
    <path d="M 15.5 71  A 5.5 5.5 0 0 1 21 65.5 L 83 65.5  A 5.5 5.5 0 0 1 88.5 71 L 88.5 89  A 5.5 5.5 0 0 1 83 94.5 L 21 94.5  A 5.5 5.5 0 0 1 15.5 89 L 15.5 71  Z " stroke-width="1" stroke="#bea6a0" fill="none" />
  </g>
</svg>