<?xml version="1.0" encoding="utf-8"?>
<svg version="1.1" xmlns:xlink="http://www.w3.org/1999/xlink" width="86px" height="30px" xmlns="http://www.w3.org/2000/svg">
  <g transform="matrix(1 0 0 1 -94 -65 )">
    <path d="M 95 71  A 5 5 0 0 1 100 66 L 174 66  A 5 5 0 0 1 179 71 L 179 89  A 5 5 0 0 1 174 94 L 100 94  A 5 5 0 0 1 95 89 L 95 71  Z " fill-rule="nonzero" fill="#51505b" stroke="none" />
    <path d="M 94.5 71  A 5.5 5.5 0 0 1 100 65.5 L 174 65.5  A 5.5 5.5 0 0 1 179.5 71 L 179.5 89  A 5.5 5.5 0 0 1 174 94.5 L 100 94.5  A 5.5 5.5 0 0 1 94.5 89 L 94.5 71  Z " stroke-width="1" stroke="#eda091" fill="none" stroke-opacity="0.8" />
  </g>
</svg>