<?xml version="1.0" encoding="utf-8"?>
<svg version="1.1" xmlns:xlink="http://www.w3.org/1999/xlink" width="285px" height="40px" xmlns="http://www.w3.org/2000/svg">
  <g transform="matrix(1 0 0 1 -905 -799 )">
    <path d="M 907 804  A 3 3 0 0 1 910 801 L 1185 801  A 3 3 0 0 1 1188 804 L 1188 834  A 3 3 0 0 1 1185 837 L 910 837  A 3 3 0 0 1 907 834 L 907 804  Z " fill-rule="nonzero" fill="#2c3e50" stroke="none" fill-opacity="0" />
    <path d="M 906 804  A 4 4 0 0 1 910 800 L 1185 800  A 4 4 0 0 1 1189 804 L 1189 834  A 4 4 0 0 1 1185 838 L 910 838  A 4 4 0 0 1 906 834 L 906 804  Z " stroke-width="2" stroke="#eda091" fill="none" stroke-opacity="0.8" />
  </g>
</svg>