<?xml version="1.0" encoding="utf-8"?>
<svg version="1.1" xmlns:xlink="http://www.w3.org/1999/xlink" width="50px" height="50px" xmlns="http://www.w3.org/2000/svg">
  <g transform="matrix(1 0 0 1 -1850 -446 )">
    <path d="M 1875 447  C 1888.44 447  1899 457.56  1899 471  C 1899 484.44  1888.44 495  1875 495  C 1861.56 495  1851 484.44  1851 471  C 1851 457.56  1861.56 447  1875 447  Z " fill-rule="nonzero" fill="#eda091" stroke="none" />
    <path d="M 1875 447  C 1888.44 447  1899 457.56  1899 471  C 1899 484.44  1888.44 495  1875 495  C 1861.56 495  1851 484.44  1851 471  C 1851 457.56  1861.56 447  1875 447  Z " stroke-width="2" stroke="#eda091" fill="none" />
  </g>
</svg>