<?xml version="1.0" encoding="utf-8"?>
<svg version="1.1" xmlns:xlink="http://www.w3.org/1999/xlink" width="50px" height="50px" xmlns="http://www.w3.org/2000/svg">
  <g transform="matrix(1 0 0 1 -1850 -82 )">
    <path d="M 1875 83  C 1888.44 83  1899 93.56  1899 107  C 1899 120.44  1888.44 131  1875 131  C 1861.56 131  1851 120.44  1851 107  C 1851 93.56  1861.56 83  1875 83  Z " fill-rule="nonzero" fill="#ffffff" stroke="none" fill-opacity="0" />
    <path d="M 1875 83  C 1888.44 83  1899 93.56  1899 107  C 1899 120.44  1888.44 131  1875 131  C 1861.56 131  1851 120.44  1851 107  C 1851 93.56  1861.56 83  1875 83  Z " stroke-width="2" stroke="#eda091" fill="none" />
  </g>
</svg>